<?xml version="1.0" encoding="utf-8"?>
<!-- Generator: Adobe Illustrator 16.0.0, SVG Export Plug-In . SVG Version: 6.00 Build 0)  -->
<!DOCTYPE svg PUBLIC "-//W3C//DTD SVG 1.1//EN" "http://www.w3.org/Graphics/SVG/1.1/DTD/svg11.dtd">
<svg version="1.1" id="Layer_1" xmlns="http://www.w3.org/2000/svg" xmlns:xlink="http://www.w3.org/1999/xlink" x="0px" y="0px"
	 width="282.868px" height="212.473px" viewBox="0 0 282.868 212.473" enable-background="new 0 0 282.868 212.473"
	 xml:space="preserve">
<g>
	<path fill-rule="evenodd" clip-rule="evenodd" fill="#FFFFFF" stroke="#FFFFFF" stroke-miterlimit="10" d="M160.54,178.333
		c0.819,0.192,1.633,0.286,2.431,0.286c1.282,0,2.262-0.29,2.934-0.864s1.008-1.286,1.008-2.132c0-0.555-0.155-1.093-0.47-1.606
		c-0.311-0.518-0.81-0.922-1.492-1.218c-0.683-0.297-1.531-0.443-2.539-0.443c-0.438,0-0.81,0.007-1.12,0.021
		c-0.311,0.016-0.56,0.039-0.751,0.073V178.333z M160.54,171.448c0.26,0.05,0.56,0.087,0.892,0.112
		c0.336,0.024,0.705,0.035,1.105,0.035c1.029,0,1.807-0.111,2.323-0.332s0.913-0.561,1.188-1.02
		c0.271-0.455,0.408-0.953,0.408-1.495c0-0.838-0.344-1.549-1.026-2.142c-0.683-0.589-1.68-0.886-2.987-0.886
		c-0.704,0-1.34,0.076-1.903,0.231V171.448z M166.081,172.036c0.993,0.213,1.737,0.549,2.232,1.019
		c0.683,0.65,1.025,1.445,1.025,2.386c0,0.715-0.224,1.4-0.675,2.055c-0.452,0.654-1.069,1.13-1.857,1.43
		c-0.783,0.301-1.982,0.452-3.598,0.452h-6.766v-0.39h0.534c0.597,0,1.022-0.192,1.283-0.571c0.162-0.246,0.241-0.772,0.241-1.575
		v-9.298c0-0.888-0.101-1.449-0.303-1.68c-0.274-0.312-0.68-0.465-1.222-0.465h-0.534v-0.392h6.191c1.156,0,2.081,0.083,2.778,0.253
		c1.058,0.257,1.863,0.704,2.42,1.352c0.557,0.646,0.834,1.387,0.834,2.229c0,0.72-0.217,1.362-0.653,1.934
		C167.576,171.338,166.934,171.761,166.081,172.036 M150.783,165.398v-0.392h5.05v0.392h-0.538c-0.563,0-0.997,0.233-1.301,0.707
		c-0.148,0.221-0.221,0.726-0.221,1.523v5.824c0,1.441-0.141,2.557-0.426,3.352c-0.285,0.796-0.849,1.479-1.684,2.045
		c-0.834,0.566-1.969,0.853-3.406,0.853c-1.564,0-2.754-0.271-3.562-0.816c-0.813-0.542-1.388-1.274-1.724-2.192
		c-0.228-0.628-0.339-1.807-0.339-3.536v-5.614c0-0.882-0.123-1.46-0.365-1.733c-0.242-0.274-0.636-0.411-1.178-0.411h-0.539v-0.392
		h6.199v0.392h-0.549c-0.592,0-1.015,0.187-1.268,0.559c-0.177,0.253-0.265,0.784-0.265,1.586v6.26c0,0.558,0.051,1.195,0.152,1.918
		c0.104,0.72,0.289,1.278,0.556,1.685c0.271,0.399,0.658,0.732,1.16,0.997c0.506,0.259,1.124,0.389,1.857,0.389
		c0.938,0,1.78-0.206,2.521-0.614c0.74-0.406,1.246-0.935,1.517-1.57c0.271-0.64,0.408-1.724,0.408-3.247v-5.816
		c0-0.896-0.098-1.456-0.297-1.68c-0.274-0.312-0.683-0.465-1.224-0.465H150.783z M139.625,175.411l0.347,0.076l-1.236,3.89h-11.118
		v-0.39h0.538c0.607,0,1.04-0.196,1.3-0.589c0.148-0.225,0.221-0.744,0.221-1.558v-9.298c0-0.896-0.098-1.456-0.297-1.68
		c-0.274-0.312-0.682-0.465-1.224-0.465h-0.538v-0.392h6.502v0.392c-0.762-0.009-1.297,0.06-1.608,0.209
		c-0.306,0.144-0.516,0.332-0.629,0.553c-0.111,0.223-0.169,0.758-0.169,1.6v9.061c0,0.588,0.058,0.989,0.169,1.21
		c0.084,0.15,0.218,0.259,0.394,0.332c0.174,0.067,0.727,0.104,1.655,0.104h1.047c1.106,0,1.879-0.079,2.323-0.241
		c0.445-0.162,0.853-0.451,1.221-0.862C138.887,176.95,139.255,176.298,139.625,175.411 M125.774,164.682l0.325,4.877h-0.325
		c-0.437-1.46-1.058-2.516-1.867-3.154c-0.809-0.644-1.778-0.964-2.912-0.964c-0.946,0-1.806,0.242-2.572,0.725
		c-0.765,0.485-1.369,1.254-1.81,2.316c-0.437,1.058-0.657,2.377-0.657,3.952c0,1.301,0.206,2.428,0.622,3.381
		c0.415,0.954,1.04,1.683,1.871,2.192c0.834,0.51,1.784,0.763,2.849,0.763c0.929,0,1.749-0.198,2.457-0.597
		c0.712-0.396,1.492-1.188,2.341-2.373l0.328,0.217c-0.718,1.274-1.556,2.207-2.513,2.8c-0.958,0.589-2.095,0.885-3.41,0.885
		c-2.374,0-4.212-0.881-5.513-2.648c-0.972-1.313-1.459-2.859-1.459-4.639c0-1.433,0.321-2.752,0.96-3.951
		c0.639-1.203,1.521-2.132,2.641-2.792c1.123-0.661,2.348-0.989,3.677-0.989c1.033,0,2.052,0.253,3.06,0.762
		c0.293,0.155,0.506,0.234,0.632,0.234c0.188,0,0.354-0.068,0.495-0.201c0.184-0.191,0.314-0.455,0.39-0.795H125.774z"/>
	<path fill-rule="evenodd" clip-rule="evenodd" fill="#FFFFFF" stroke="#FFFFFF" stroke-miterlimit="10" d="M281.812,187.341
		l0.114,5.062h-0.458c-0.217-1.268-0.748-2.286-1.596-3.058c-0.851-0.771-1.767-1.156-2.752-1.156c-0.763,0-1.366,0.201-1.809,0.61
		c-0.446,0.405-0.669,0.874-0.669,1.401c0,0.336,0.08,0.633,0.237,0.896c0.214,0.348,0.562,0.694,1.042,1.038
		c0.352,0.244,1.16,0.684,2.427,1.31c1.779,0.87,2.979,1.694,3.597,2.469c0.613,0.775,0.92,1.661,0.92,2.661
		c0,1.267-0.496,2.354-1.485,3.267s-2.244,1.37-3.768,1.37c-0.477,0-0.932-0.049-1.354-0.144c-0.428-0.097-0.962-0.279-1.603-0.551
		c-0.359-0.148-0.653-0.222-0.886-0.222c-0.195,0-0.397,0.077-0.614,0.227c-0.218,0.151-0.394,0.382-0.527,0.689h-0.39v-5.724h0.39
		c0.328,1.605,0.962,2.835,1.897,3.678c0.938,0.844,1.946,1.268,3.029,1.268c0.836,0,1.504-0.228,2-0.684
		c0.497-0.454,0.745-0.979,0.745-1.587c0-0.355-0.096-0.703-0.286-1.039c-0.19-0.335-0.477-0.652-0.866-0.958
		c-0.39-0.301-1.076-0.694-2.062-1.178c-1.382-0.678-2.374-1.256-2.978-1.734c-0.599-0.477-1.061-1.011-1.386-1.599
		c-0.323-0.592-0.484-1.241-0.484-1.947c0-1.21,0.442-2.24,1.333-3.091c0.885-0.853,2.003-1.275,3.354-1.275
		c0.492,0,0.97,0.058,1.432,0.176c0.351,0.092,0.778,0.256,1.281,0.496c0.504,0.24,0.856,0.358,1.059,0.358
		c0.193,0,0.347-0.057,0.458-0.175c0.109-0.118,0.218-0.405,0.312-0.855H281.812z M260.2,187.684l7.478,9.405v-6.519
		c0-0.92-0.13-1.538-0.394-1.863c-0.358-0.439-0.962-0.648-1.805-0.633v-0.391h5.015v0.391c-0.641,0.084-1.072,0.19-1.294,0.321
		c-0.217,0.133-0.389,0.347-0.515,0.644c-0.122,0.298-0.184,0.81-0.184,1.531v12.641h-0.378l-10.248-12.656v9.681
		c0,0.877,0.198,1.472,0.599,1.781c0.401,0.31,0.863,0.463,1.378,0.463h0.359v0.389h-5.406v-0.389
		c0.841-0.009,1.421-0.181,1.753-0.521c0.329-0.339,0.493-0.912,0.493-1.724v-10.738l-0.317-0.393
		c-0.32-0.412-0.603-0.684-0.851-0.813c-0.245-0.129-0.6-0.202-1.062-0.217v-0.391H260.2z M245.662,188.211
		c-1.394,0-2.451,0.706-3.18,2.122c-0.593,1.161-0.886,2.829-0.886,5.004c0,2.584,0.458,4.496,1.37,5.733
		c0.638,0.862,1.527,1.294,2.672,1.294c0.771,0,1.416-0.188,1.932-0.558c0.656-0.477,1.172-1.239,1.538-2.285
		c0.365-1.047,0.55-2.412,0.55-4.093c0-2.004-0.188-3.504-0.562-4.496c-0.375-0.995-0.851-1.698-1.432-2.106
		C247.086,188.417,246.418,188.211,245.662,188.211 M245.528,187.501c2.416-0.088,4.382,0.615,5.894,2.111
		c1.51,1.5,2.267,3.371,2.267,5.622c0,1.92-0.564,3.61-1.69,5.072c-1.492,1.936-3.6,2.904-6.324,2.904
		c-2.733,0-4.845-0.923-6.336-2.77c-1.18-1.462-1.771-3.192-1.771-5.195c0-2.252,0.767-4.126,2.302-5.626
		C241.402,188.117,243.288,187.414,245.528,187.501 M236.143,202.48v0.389h-7.901v-0.389h0.5c0.438,0,0.794-0.08,1.062-0.237
		c0.194-0.107,0.344-0.287,0.446-0.542c0.08-0.179,0.122-0.653,0.122-1.42v-10.007c0-0.783-0.042-1.272-0.122-1.467
		c-0.084-0.194-0.248-0.366-0.496-0.512c-0.248-0.148-0.584-0.221-1.012-0.221h-0.5v-0.391h7.901v0.391h-0.5
		c-0.436,0-0.786,0.08-1.054,0.237c-0.19,0.105-0.344,0.284-0.454,0.541c-0.08,0.18-0.122,0.652-0.122,1.421v10.007
		c0,0.783,0.042,1.271,0.126,1.466c0.088,0.194,0.251,0.366,0.5,0.511c0.248,0.149,0.583,0.223,1.004,0.223H236.143z
		 M226.959,187.684v4.101h-0.389c-0.241-0.947-0.505-1.626-0.795-2.038c-0.289-0.416-0.69-0.745-1.198-0.989
		c-0.282-0.134-0.778-0.202-1.488-0.202h-1.146v11.726c0,0.783,0.042,1.271,0.126,1.466c0.084,0.194,0.252,0.366,0.497,0.511
		c0.247,0.149,0.583,0.223,1.011,0.223h0.496v0.389h-7.9v-0.389h0.5c0.435,0,0.786-0.08,1.052-0.237
		c0.192-0.107,0.345-0.287,0.455-0.542c0.081-0.179,0.123-0.653,0.123-1.42v-11.726h-1.1c-1.016,0-1.752,0.218-2.214,0.649
		c-0.645,0.603-1.05,1.461-1.221,2.58h-0.436v-4.101H226.959z M196.496,187.684h7.833v0.391h-0.394
		c-0.591,0-0.996,0.061-1.218,0.187c-0.221,0.122-0.378,0.294-0.469,0.512c-0.096,0.218-0.142,0.764-0.142,1.638v7.427
		c0,1.359,0.104,2.256,0.306,2.696c0.206,0.441,0.542,0.804,1.011,1.098c0.47,0.29,1.065,0.437,1.779,0.437
		c0.82,0,1.519-0.185,2.096-0.555c0.576-0.37,1.006-0.878,1.293-1.526c0.287-0.649,0.432-1.779,0.432-3.39v-6.187
		c0-0.685-0.072-1.176-0.215-1.466c-0.14-0.294-0.319-0.496-0.537-0.611c-0.336-0.171-0.81-0.259-1.424-0.259v-0.391h5.245v0.391
		h-0.313c-0.424,0-0.774,0.088-1.058,0.259c-0.282,0.172-0.488,0.432-0.614,0.779c-0.096,0.24-0.145,0.672-0.145,1.298v5.763
		c0,1.782-0.118,3.069-0.352,3.859c-0.236,0.794-0.807,1.519-1.714,2.183c-0.912,0.664-2.148,0.996-3.722,0.996
		c-1.312,0-2.324-0.175-3.038-0.526c-0.977-0.478-1.668-1.088-2.068-1.836c-0.4-0.743-0.604-1.748-0.604-3.008v-7.431
		c0-0.882-0.05-1.428-0.145-1.643c-0.1-0.213-0.265-0.385-0.504-0.515c-0.24-0.126-0.68-0.187-1.321-0.179V187.684z
		 M195.169,197.555l-0.573,5.313h-13.442v-0.389h0.5c0.438,0,0.793-0.08,1.061-0.237c0.194-0.107,0.343-0.287,0.446-0.542
		c0.08-0.179,0.122-0.653,0.122-1.42v-10.007c0-0.783-0.042-1.272-0.122-1.467c-0.084-0.194-0.248-0.366-0.496-0.512
		c-0.248-0.148-0.584-0.221-1.011-0.221h-0.5v-0.391h8.084v0.391h-0.664c-0.439,0-0.794,0.08-1.065,0.237
		c-0.194,0.105-0.347,0.284-0.462,0.541c-0.08,0.18-0.122,0.652-0.122,1.421v9.686c0,0.775,0.046,1.272,0.133,1.486
		c0.089,0.213,0.265,0.37,0.523,0.476c0.188,0.066,0.638,0.101,1.348,0.101h1.26c0.802,0,1.47-0.143,2.004-0.425
		c0.533-0.281,1-0.729,1.39-1.34c0.389-0.609,0.759-1.511,1.106-2.702H195.169z M171.847,188.211c-1.393,0-2.45,0.706-3.179,2.122
		c-0.592,1.161-0.886,2.829-0.886,5.004c0,2.584,0.458,4.496,1.37,5.733c0.638,0.862,1.527,1.294,2.672,1.294
		c0.771,0,1.416-0.188,1.932-0.558c0.656-0.477,1.172-1.239,1.538-2.285c0.366-1.047,0.55-2.412,0.55-4.093
		c0-2.004-0.188-3.504-0.562-4.496c-0.374-0.995-0.852-1.698-1.431-2.106C173.271,188.417,172.604,188.211,171.847,188.211
		 M171.714,187.501c2.416-0.088,4.382,0.615,5.893,2.111c1.512,1.5,2.268,3.371,2.268,5.622c0,1.92-0.565,3.61-1.691,5.072
		c-1.492,1.936-3.599,2.904-6.324,2.904c-2.732,0-4.844-0.923-6.336-2.77c-1.18-1.462-1.771-3.192-1.771-5.195
		c0-2.252,0.767-4.126,2.302-5.626C167.588,188.117,169.473,187.414,171.714,187.501 M163.095,187.684v0.391
		c-0.549,0.091-1.041,0.385-1.473,0.889c-0.314,0.374-0.779,1.256-1.401,2.646l-5.198,11.603h-0.37l-5.176-12.08
		c-0.627-1.462-1.046-2.321-1.256-2.572c-0.214-0.256-0.614-0.417-1.202-0.484v-0.391h7.236v0.391h-0.244
		c-0.656,0-1.106,0.084-1.343,0.252c-0.172,0.111-0.257,0.278-0.257,0.5c0,0.137,0.027,0.297,0.088,0.483
		c0.062,0.185,0.264,0.681,0.607,1.489l3.232,7.542l2.981-6.714c0.361-0.824,0.588-1.374,0.668-1.653
		c0.084-0.277,0.126-0.515,0.126-0.713c0-0.225-0.061-0.424-0.181-0.599c-0.121-0.172-0.294-0.306-0.525-0.397
		c-0.32-0.126-0.744-0.19-1.274-0.19v-0.391H163.095z M137.755,188.555v6.184h0.301c0.966,0,1.665-0.301,2.1-0.905
		c0.431-0.603,0.71-1.492,0.828-2.668h0.435v7.948h-0.435c-0.088-0.867-0.279-1.577-0.565-2.126
		c-0.29-0.555-0.622-0.924-1.004-1.115c-0.381-0.191-0.935-0.287-1.66-0.287v4.269c0,0.836,0.034,1.344,0.107,1.529
		c0.069,0.188,0.202,0.34,0.397,0.458c0.194,0.118,0.507,0.181,0.939,0.181h0.908c1.417,0,2.553-0.328,3.408-0.982
		c0.856-0.652,1.471-1.648,1.841-2.992h0.416l-0.684,4.821h-13.103v-0.389h0.5c0.439,0,0.794-0.08,1.061-0.237
		c0.194-0.107,0.344-0.287,0.446-0.542c0.081-0.179,0.123-0.653,0.123-1.42v-10.007c0-0.692-0.019-1.115-0.058-1.276
		c-0.072-0.263-0.21-0.465-0.412-0.607c-0.282-0.209-0.668-0.315-1.16-0.315h-0.5v-0.391h12.687v4.489h-0.435
		c-0.214-1.099-0.52-1.885-0.908-2.363c-0.39-0.477-0.939-0.827-1.653-1.053c-0.416-0.134-1.195-0.202-2.34-0.202H137.755z
		 M123.827,187.341l0.114,5.062h-0.457c-0.218-1.268-0.749-2.286-1.596-3.058c-0.851-0.771-1.767-1.156-2.752-1.156
		c-0.763,0-1.367,0.201-1.809,0.61c-0.447,0.405-0.668,0.874-0.668,1.401c0,0.336,0.08,0.633,0.236,0.896
		c0.214,0.348,0.561,0.694,1.042,1.038c0.352,0.244,1.161,0.684,2.428,1.31c1.779,0.87,2.977,1.694,3.596,2.469
		c0.614,0.775,0.92,1.661,0.92,2.661c0,1.267-0.496,2.354-1.485,3.267c-0.989,0.912-2.245,1.37-3.767,1.37
		c-0.478,0-0.932-0.049-1.356-0.144c-0.427-0.097-0.961-0.279-1.602-0.551c-0.359-0.148-0.653-0.222-0.886-0.222
		c-0.195,0-0.397,0.077-0.615,0.227c-0.218,0.151-0.393,0.382-0.527,0.689h-0.389v-5.724h0.389c0.329,1.605,0.962,2.835,1.898,3.678
		c0.938,0.844,1.946,1.268,3.03,1.268c0.836,0,1.504-0.228,2-0.684c0.496-0.454,0.744-0.979,0.744-1.587
		c0-0.355-0.095-0.703-0.286-1.039c-0.191-0.335-0.477-0.652-0.866-0.958c-0.39-0.301-1.076-0.694-2.061-1.178
		c-1.382-0.678-2.375-1.256-2.977-1.734c-0.6-0.477-1.061-1.011-1.386-1.599c-0.324-0.592-0.485-1.241-0.485-1.947
		c0-1.21,0.443-2.24,1.333-3.091c0.885-0.853,2.003-1.275,3.354-1.275c0.493,0,0.97,0.058,1.432,0.176
		c0.351,0.092,0.778,0.256,1.282,0.496c0.504,0.24,0.855,0.358,1.058,0.358c0.194,0,0.347-0.057,0.457-0.175
		c0.111-0.118,0.218-0.405,0.314-0.855H123.827z M111.09,187.341l0.114,5.062h-0.457c-0.218-1.268-0.749-2.286-1.596-3.058
		c-0.851-0.771-1.767-1.156-2.752-1.156c-0.763,0-1.366,0.201-1.809,0.61c-0.447,0.405-0.668,0.874-0.668,1.401
		c0,0.336,0.08,0.633,0.237,0.896c0.213,0.348,0.561,0.694,1.042,1.038c0.351,0.244,1.16,0.684,2.427,1.31
		c1.779,0.87,2.977,1.694,3.595,2.469c0.615,0.775,0.92,1.661,0.92,2.661c0,1.267-0.496,2.354-1.484,3.267
		c-0.989,0.912-2.245,1.37-3.768,1.37c-0.477,0-0.931-0.049-1.355-0.144c-0.427-0.097-0.961-0.279-1.603-0.551
		c-0.358-0.148-0.652-0.222-0.885-0.222c-0.195,0-0.397,0.077-0.615,0.227c-0.217,0.151-0.393,0.382-0.526,0.689h-0.39v-5.724h0.39
		c0.328,1.605,0.961,2.835,1.897,3.678c0.939,0.844,1.946,1.268,3.03,1.268c0.836,0,1.504-0.228,2-0.684
		c0.496-0.454,0.744-0.979,0.744-1.587c0-0.355-0.095-0.703-0.286-1.039c-0.191-0.335-0.477-0.652-0.866-0.958
		c-0.39-0.301-1.077-0.694-2.061-1.178c-1.382-0.678-2.374-1.256-2.977-1.734c-0.6-0.477-1.062-1.011-1.386-1.599
		c-0.324-0.592-0.485-1.241-0.485-1.947c0-1.21,0.443-2.24,1.332-3.091c0.886-0.853,2.004-1.275,3.355-1.275
		c0.493,0,0.97,0.058,1.432,0.176c0.351,0.092,0.778,0.256,1.282,0.496s0.855,0.358,1.058,0.358c0.194,0,0.347-0.057,0.457-0.175
		c0.111-0.118,0.218-0.405,0.314-0.855H111.09z M91.281,188.555v6.184h0.301c0.966,0,1.664-0.301,2.099-0.905
		c0.432-0.603,0.71-1.492,0.829-2.668h0.435v7.948H94.51c-0.088-0.867-0.279-1.577-0.565-2.126c-0.29-0.555-0.622-0.924-1.004-1.115
		c-0.382-0.191-0.935-0.287-1.66-0.287v4.269c0,0.836,0.034,1.344,0.107,1.529c0.068,0.188,0.202,0.34,0.397,0.458
		c0.194,0.118,0.507,0.181,0.938,0.181h0.909c1.416,0,2.553-0.328,3.408-0.982c0.855-0.652,1.47-1.648,1.84-2.992h0.416
		l-0.683,4.821H85.51v-0.389h0.5c0.439,0,0.794-0.08,1.061-0.237c0.194-0.107,0.343-0.287,0.446-0.542
		c0.08-0.179,0.122-0.653,0.122-1.42v-10.007c0-0.692-0.019-1.115-0.057-1.276c-0.072-0.263-0.21-0.465-0.412-0.607
		c-0.282-0.209-0.668-0.315-1.16-0.315h-0.5v-0.391h12.687v4.489h-0.435c-0.214-1.099-0.519-1.885-0.909-2.363
		c-0.389-0.477-0.939-0.827-1.652-1.053c-0.416-0.134-1.195-0.202-2.34-0.202H91.281z M74.204,187.684l7.477,9.405v-6.519
		c0-0.92-0.13-1.538-0.393-1.863c-0.359-0.439-0.962-0.648-1.806-0.633v-0.391h5.016v0.391c-0.641,0.084-1.072,0.19-1.294,0.321
		c-0.218,0.133-0.389,0.347-0.515,0.644c-0.122,0.298-0.183,0.81-0.183,1.531v12.641h-0.378l-10.249-12.656v9.681
		c0,0.877,0.199,1.472,0.6,1.781s0.862,0.463,1.378,0.463h0.358v0.389H68.81v-0.389c0.84-0.009,1.42-0.181,1.752-0.521
		c0.328-0.339,0.493-0.912,0.493-1.724v-10.738l-0.317-0.393c-0.32-0.412-0.603-0.684-0.851-0.813
		c-0.245-0.129-0.599-0.202-1.061-0.217v-0.391H74.204z M67.711,197.555l-0.572,5.313H53.696v-0.389h0.5
		c0.439,0,0.794-0.08,1.061-0.237c0.194-0.107,0.343-0.287,0.446-0.542c0.081-0.179,0.123-0.653,0.123-1.42v-10.007
		c0-0.783-0.042-1.272-0.123-1.467c-0.084-0.194-0.248-0.366-0.496-0.512c-0.248-0.148-0.584-0.221-1.011-0.221h-0.5v-0.391h8.084
		v0.391h-0.664c-0.439,0-0.794,0.08-1.065,0.237c-0.195,0.105-0.348,0.284-0.462,0.541c-0.08,0.18-0.122,0.652-0.122,1.421v9.686
		c0,0.775,0.046,1.272,0.133,1.486c0.088,0.213,0.264,0.37,0.523,0.476c0.187,0.066,0.638,0.101,1.348,0.101h1.259
		c0.802,0,1.47-0.143,2.004-0.425c0.534-0.281,1-0.729,1.389-1.34c0.39-0.609,0.76-1.511,1.107-2.702H67.711z M52.436,197.555
		l-0.572,5.313H38.421v-0.389h0.5c0.439,0,0.793-0.08,1.061-0.237c0.195-0.107,0.344-0.287,0.446-0.542
		c0.081-0.179,0.123-0.653,0.123-1.42v-10.007c0-0.783-0.042-1.272-0.123-1.467c-0.084-0.194-0.248-0.366-0.496-0.512
		c-0.248-0.148-0.584-0.221-1.011-0.221h-0.5v-0.391h8.084v0.391h-0.664c-0.439,0-0.794,0.08-1.065,0.237
		c-0.195,0.105-0.347,0.284-0.462,0.541c-0.08,0.18-0.122,0.652-0.122,1.421v9.686c0,0.775,0.046,1.272,0.134,1.486
		c0.087,0.213,0.263,0.37,0.522,0.476c0.187,0.066,0.638,0.101,1.348,0.101h1.259c0.802,0,1.47-0.143,2.004-0.425
		c0.534-0.281,1-0.729,1.389-1.34c0.39-0.609,0.76-1.511,1.107-2.702H52.436z M28.917,188.555v6.184h0.301
		c0.966,0,1.664-0.301,2.099-0.905c0.432-0.603,0.71-1.492,0.828-2.668h0.436v7.948h-0.436c-0.087-0.867-0.278-1.577-0.564-2.126
		c-0.29-0.555-0.622-0.924-1.004-1.115s-0.935-0.287-1.66-0.287v4.269c0,0.836,0.034,1.344,0.107,1.529
		c0.068,0.188,0.202,0.34,0.396,0.458c0.195,0.118,0.508,0.181,0.94,0.181h0.908c1.416,0,2.553-0.328,3.408-0.982
		c0.855-0.652,1.47-1.648,1.84-2.992h0.416l-0.683,4.821H23.145v-0.389h0.501c0.438,0,0.793-0.08,1.061-0.237
		c0.194-0.107,0.343-0.287,0.446-0.542c0.08-0.179,0.122-0.653,0.122-1.42v-10.007c0-0.692-0.019-1.115-0.057-1.276
		c-0.073-0.263-0.21-0.465-0.412-0.607c-0.282-0.209-0.668-0.315-1.16-0.315h-0.501v-0.391h12.688v4.489h-0.435
		c-0.214-1.099-0.519-1.885-0.909-2.363c-0.389-0.477-0.938-0.827-1.653-1.053c-0.415-0.134-1.194-0.202-2.339-0.202H28.917z
		 M22.493,187.684v0.391c-0.283,0.021-0.523,0.103-0.718,0.24c-0.195,0.141-0.366,0.351-0.519,0.634
		c-0.042,0.091-0.275,0.672-0.695,1.74l-4.752,12.522h-0.408l-3.756-9.881l-4.16,9.881H7.088L2.08,190.819
		c-0.507-1.256-0.858-2.02-1.061-2.282c-0.202-0.264-0.542-0.416-1.019-0.462v-0.391h6.576v0.391
		c-0.53,0.015-0.881,0.095-1.057,0.244c-0.175,0.145-0.263,0.328-0.263,0.546c0,0.286,0.183,0.893,0.55,1.82l2.973,7.366
		l2.408-5.816l-0.603-1.569c-0.343-0.881-0.607-1.473-0.794-1.767s-0.401-0.509-0.645-0.634c-0.24-0.126-0.595-0.19-1.065-0.19
		v-0.391h7.29v0.391c-0.511,0.007-0.881,0.049-1.106,0.126c-0.157,0.049-0.279,0.141-0.367,0.263
		c-0.092,0.126-0.133,0.268-0.133,0.424c0,0.176,0.164,0.706,0.5,1.596l2.759,7.187l2.47-6.504c0.259-0.675,0.42-1.137,0.48-1.389
		c0.062-0.248,0.088-0.478,0.088-0.688c0-0.309-0.103-0.55-0.313-0.729c-0.206-0.177-0.607-0.271-1.194-0.286v-0.391H22.493z"/>
	<polygon fill-rule="evenodd" clip-rule="evenodd" fill="#FFFFFF" stroke="#FFFFFF" stroke-miterlimit="10" points="
		176.708,210.292 178.729,210.292 282.868,210.292 282.868,212.473 178.729,212.473 176.708,212.473 0,212.473 0,210.292 	"/>
	<path fill-rule="evenodd" clip-rule="evenodd" fill="#FFFFFF" stroke="#FFFFFF" stroke-miterlimit="10" d="M176.708,171.1h106.16
		v2.182h-106.16V171.1z M0,171.1h106.16v2.182H0V171.1z"/>
	<path fill-rule="evenodd" clip-rule="evenodd" fill="#FFFFFF" stroke="#FFFFFF" stroke-miterlimit="10" d="M184.611,38.671
		c-20.756-20.755-54.408-20.755-75.164,0c-0.396,0.395-0.78,0.797-1.16,1.201c19.549-18.346,50.271-17.974,69.364,1.119
		c19.476,19.475,19.476,51.05,0,70.525c-19.093,19.093-49.815,19.464-69.364,1.12c0.38,0.404,0.764,0.804,1.16,1.2
		c20.756,20.756,54.408,20.756,75.164,0C205.367,93.08,205.367,59.427,184.611,38.671 M99.956,34.729
		c22.933-22.933,60.115-22.933,83.048,0c0.437,0.437,0.862,0.88,1.281,1.327c-21.599-20.27-55.543-19.86-76.641,1.236
		c-21.517,21.518-21.517,56.405,0,77.923c21.097,21.096,55.042,21.506,76.641,1.236c-0.419,0.446-0.845,0.891-1.281,1.326
		c-22.934,22.935-60.115,22.935-83.048,0C77.021,94.845,77.021,57.663,99.956,34.729"/>
	<path fill-rule="evenodd" clip-rule="evenodd" fill="#FFFFFF" stroke="#FFFFFF" stroke-miterlimit="10" d="M152.715,96.022
		l-1.511,4.387h25.268l4.262-12.376h-1.492c-1.577,3.032-3.118,5.306-4.621,6.809c-1.156,1.143-2.374,1.914-3.63,2.299
		c-1.266,0.385-3.292,0.584-6.075,0.584h-8.362c-1.355,0-2.286-0.136-2.771-0.423c-0.483-0.273-0.819-0.658-1.019-1.13
		C152.746,96.129,152.729,96.08,152.715,96.022 M152.48,92.806c-0.002-0.199-0.003-0.407-0.003-0.623L152.48,92.806z
		 M160.573,73.197l-0.923,2.684h3.712c2.062,0,3.591,0.248,4.585,0.732c0.994,0.485,1.715,1.156,2.149,2.001
		c0.336,0.684,0.684,2.237,1.019,4.647h1.343V66.041h-1.343c-0.148,2.807-0.845,4.771-2.112,5.889
		c-0.943,0.845-2.82,1.268-5.641,1.268H160.573z M125.636,101.527l11.121-31.611l8.646,24.277l2.213,6.216l0.399,1.118h1.466
		l0.384-1.118l2.616-7.594l5.831-16.934l0.925-2.684l3.962-11.507c1.043-3.205,1.814-5.243,2.299-6.088
		c0.46-0.809,0.94-1.451,1.435-1.929c0.847,0.018,1.59,0.062,2.229,0.131c0.847,0.091,1.511,0.227,1.992,0.406
		c1.205,0.522,2.125,1.268,2.746,2.249c0.621,0.982,1.181,2.784,1.689,5.405h1.417l-0.522-10.884h-4.304h-1.265h-14.712v1.341
		c1.479,0,2.671,0.175,3.603,0.51c0.459,0.171,0.844,0.45,1.172,0.832c0.054,0.064,0.107,0.13,0.158,0.199
		c0.348,0.485,0.521,1.019,0.521,1.579c0,1.167-0.533,3.267-1.602,6.299l-3.949,11.457l-0.926,2.684l-2.702,7.838l-1.804,5.233
		l-5.204-14.725l-4.277-12.101c-1.094-3.107-1.64-5.294-1.64-6.537c0-1.006,0.31-1.801,0.944-2.385
		c0.368-0.34,0.857-0.582,1.468-0.726c0.441-0.104,0.946-0.157,1.514-0.157h1.317V50.98h-6.409h-12.789v1.341
		c0.995,0,1.728,0.075,2.187,0.224c0.609,0.187,1.218,0.509,1.827,0.945c0.46,0.323,0.845,0.72,1.168,1.18
		c0.622,0.932,1.193,2.001,1.703,3.231l1.168,3.33l1.49,4.15l-8.213,23.559l-9.729-27.722c-1.068-3.081-1.603-5.045-1.603-5.902
		c0-0.82,0.335-1.528,1.019-2.112c0.683-0.584,1.665-0.883,2.945-0.883h0.882V50.98h-18.241v1.341c1.442,0,2.572,0.224,3.405,0.684
		c0.844,0.447,1.504,1.131,1.988,2.063c0.286,0.559,0.981,2.373,2.075,5.455l14.637,41.004H125.636z"/>
	<path fill-rule="evenodd" clip-rule="evenodd" fill="#FFFFFF" stroke="#FFFFFF" stroke-miterlimit="10" d="M93.531,36.327
		l0.187,0.146l-2.311,2.941l-0.187-0.147l0.192-0.243c0.223-0.285,0.302-0.555,0.24-0.813c-0.045-0.167-0.273-0.41-0.683-0.733
		l-4.442-3.49c-0.347-0.273-0.594-0.431-0.738-0.474c-0.112-0.032-0.238-0.02-0.382,0.038c-0.197,0.084-0.359,0.209-0.486,0.371
		l-0.191,0.243l-0.187-0.146l2.311-2.941l0.186,0.147l-0.194,0.247c-0.219,0.279-0.296,0.548-0.233,0.804
		c0.042,0.17,0.268,0.415,0.679,0.738l4.442,3.49c0.346,0.272,0.593,0.431,0.737,0.474c0.111,0.034,0.239,0.02,0.385-0.041
		c0.195-0.081,0.354-0.202,0.481-0.365L93.531,36.327z M89.957,27.517l1.698-1.618l8.394,1.054l-3.478-3.649
		c-0.372-0.389-0.648-0.59-0.828-0.603c-0.239-0.02-0.486,0.091-0.737,0.33l-0.222,0.212l-0.164-0.172l2.221-2.116l0.163,0.171
		l-0.225,0.215c-0.272,0.259-0.385,0.522-0.345,0.792c0.027,0.166,0.209,0.426,0.546,0.78l5.076,5.324l-0.168,0.161l-9.01-1.124
		l3.71,3.891c0.371,0.389,0.646,0.591,0.822,0.608c0.243,0.017,0.49-0.094,0.739-0.332l0.225-0.215l0.164,0.172l-2.22,2.117
		l-0.164-0.172l0.223-0.212c0.273-0.26,0.387-0.524,0.347-0.795c-0.026-0.166-0.208-0.426-0.546-0.78l-4.189-4.394
		c-0.387-0.04-0.661-0.048-0.82-0.027c-0.16,0.023-0.359,0.091-0.599,0.204c-0.117,0.06-0.267,0.176-0.449,0.35L89.957,27.517z
		 M101.248,17.732l2.033-1.169l7.904,3.016l-2.512-4.37c-0.268-0.466-0.489-0.726-0.661-0.782c-0.229-0.076-0.494-0.027-0.794,0.145
		l-0.267,0.154l-0.118-0.206l2.66-1.529l0.118,0.205l-0.27,0.156c-0.326,0.187-0.498,0.415-0.523,0.688
		c-0.013,0.167,0.101,0.463,0.345,0.887l3.667,6.377l-0.202,0.116l-8.485-3.231l2.68,4.66c0.268,0.467,0.487,0.728,0.654,0.786
		c0.233,0.074,0.498,0.025,0.797-0.147l0.27-0.155l0.118,0.206l-2.659,1.529l-0.118-0.206l0.266-0.153
		c0.327-0.188,0.502-0.417,0.527-0.69c0.013-0.167-0.102-0.463-0.346-0.888l-3.026-5.261c-0.366-0.132-0.631-0.204-0.79-0.222
		c-0.161-0.016-0.37,0.003-0.631,0.057c-0.127,0.03-0.3,0.107-0.519,0.233L101.248,17.732z M118.719,9.044
		c1.07-0.362,2.137-0.269,3.197,0.28c1.061,0.55,1.798,1.433,2.211,2.653c0.425,1.256,0.382,2.431-0.129,3.528
		c-0.509,1.097-1.328,1.835-2.452,2.215c-1.135,0.384-2.227,0.302-3.273-0.245c-1.047-0.547-1.788-1.462-2.222-2.747
		c-0.444-1.311-0.36-2.533,0.251-3.664C116.834,10.082,117.64,9.409,118.719,9.044 M118.75,9.52
		c-0.736,0.249-1.236,0.724-1.494,1.423c-0.324,0.872-0.265,1.966,0.181,3.284c0.457,1.349,1.095,2.291,1.918,2.824
		c0.629,0.403,1.305,0.482,2.03,0.237c0.776-0.262,1.311-0.782,1.612-1.557c0.299-0.779,0.228-1.818-0.214-3.123
		c-0.479-1.416-1.115-2.377-1.905-2.884C120.246,9.321,119.538,9.253,118.75,9.52 M137.477,5.465l0.03,0.235
		c-0.298,0.096-0.518,0.223-0.657,0.385c-0.198,0.237-0.357,0.585-0.476,1.04l-2.072,7.742l-0.234,0.03l-4.185-7.047
		c-0.215-0.364-0.362-0.584-0.44-0.66c-0.124-0.12-0.267-0.207-0.434-0.264c-0.164-0.054-0.379-0.076-0.645-0.064l-0.03-0.235
		l3.53-0.449l0.031,0.235c-0.396,0.091-0.646,0.191-0.754,0.304c-0.105,0.113-0.15,0.245-0.131,0.399
		c0.027,0.211,0.168,0.532,0.421,0.958l2.845,4.79l1.408-5.267c0.138-0.519,0.194-0.874,0.17-1.065
		c-0.015-0.122-0.094-0.234-0.23-0.329c-0.138-0.097-0.358-0.152-0.655-0.16c-0.022-0.002-0.061-0.004-0.112-0.006l-0.029-0.235
		L137.477,5.465z M146.499,11.468l-3.38-0.086l-0.618,1.352c-0.154,0.334-0.234,0.587-0.239,0.754
		c-0.003,0.131,0.058,0.251,0.183,0.356c0.122,0.101,0.395,0.174,0.813,0.216l-0.007,0.237l-2.75-0.07l0.006-0.237
		c0.365-0.054,0.602-0.132,0.712-0.232c0.225-0.201,0.477-0.614,0.758-1.237l3.251-7.104l0.218,0.005l2.85,7.335
		c0.229,0.591,0.441,0.974,0.637,1.154c0.195,0.178,0.469,0.282,0.826,0.313l-0.006,0.237l-3.44-0.087l0.006-0.237
		c0.348-0.009,0.584-0.06,0.709-0.155c0.125-0.096,0.188-0.215,0.191-0.358c0.004-0.188-0.073-0.489-0.234-0.901L146.499,11.468z
		 M146.313,10.989l-1.38-3.558l-1.599,3.482L146.313,10.989z M161.14,8.209l-0.372,2.02l-0.237-0.055
		c0.034-0.361,0.03-0.628-0.014-0.796c-0.075-0.272-0.205-0.491-0.395-0.654c-0.189-0.165-0.458-0.288-0.809-0.369l-1.199-0.276
		l-1.498,6.491c-0.12,0.524-0.14,0.864-0.057,1.02c0.118,0.213,0.342,0.356,0.671,0.433l0.293,0.067l-0.054,0.231l-3.618-0.835
		l0.054-0.231l0.306,0.071c0.362,0.084,0.646,0.034,0.85-0.149c0.123-0.113,0.241-0.408,0.351-0.885l1.497-6.492l-1.019-0.235
		c-0.398-0.092-0.687-0.127-0.867-0.108c-0.236,0.029-0.455,0.138-0.663,0.329c-0.206,0.189-0.369,0.473-0.487,0.851l-0.237-0.054
		l0.551-1.979L161.14,8.209z M166.586,19.251l-0.087,0.22l-3.479-1.372l0.087-0.22l0.288,0.113c0.337,0.133,0.618,0.131,0.847-0.003
		c0.148-0.09,0.315-0.378,0.508-0.864l2.071-5.255c0.162-0.41,0.242-0.692,0.243-0.843c-0.002-0.116-0.05-0.234-0.146-0.355
		c-0.138-0.165-0.304-0.284-0.495-0.36l-0.288-0.114l0.087-0.22l3.478,1.372l-0.086,0.22l-0.292-0.115
		c-0.331-0.13-0.61-0.127-0.838,0.007c-0.15,0.089-0.32,0.376-0.512,0.862l-2.071,5.255c-0.162,0.41-0.244,0.692-0.244,0.843
		c-0.001,0.116,0.05,0.234,0.15,0.356c0.134,0.164,0.295,0.282,0.487,0.357L166.586,19.251z M178.786,15.909
		c0.952,0.61,1.546,1.501,1.778,2.672c0.233,1.172,0.004,2.3-0.691,3.384c-0.717,1.116-1.66,1.816-2.836,2.102
		c-1.175,0.287-2.263,0.109-3.262-0.532c-1.009-0.647-1.626-1.55-1.853-2.71c-0.227-1.159,0.024-2.308,0.758-3.45
		c0.747-1.166,1.754-1.863,3.019-2.092C176.799,15.086,177.828,15.295,178.786,15.909 M178.435,16.231
		c-0.654-0.419-1.337-0.513-2.045-0.279c-0.883,0.291-1.7,1.021-2.451,2.193c-0.769,1.199-1.105,2.286-1.009,3.26
		c0.079,0.745,0.438,1.322,1.083,1.735c0.689,0.442,1.43,0.535,2.223,0.286c0.795-0.252,1.562-0.957,2.306-2.117
		c0.807-1.258,1.161-2.355,1.063-3.288C179.523,17.276,179.135,16.679,178.435,16.231 M127.886,137.608l0.042-0.234l3.681,0.658
		l-0.041,0.233l-0.305-0.055c-0.357-0.063-0.632-0.006-0.831,0.17c-0.126,0.118-0.234,0.435-0.325,0.947l-0.993,5.562
		c-0.078,0.434-0.101,0.727-0.072,0.875c0.025,0.112,0.095,0.22,0.213,0.318c0.168,0.135,0.354,0.22,0.556,0.255l0.305,0.056
		l-0.042,0.232l-3.681-0.657l0.042-0.233l0.309,0.055c0.35,0.063,0.623,0.004,0.82-0.172c0.13-0.118,0.24-0.432,0.332-0.946
		l0.992-5.562c0.078-0.433,0.101-0.726,0.072-0.874c-0.022-0.113-0.095-0.219-0.217-0.319c-0.164-0.135-0.345-0.218-0.547-0.254
		L127.886,137.608z M121.265,144.907l-2.182-0.86l-2.571-8.061l-1.849,4.69c-0.197,0.501-0.263,0.835-0.2,1.004
		c0.083,0.226,0.287,0.402,0.61,0.529l0.286,0.113l-0.087,0.221l-2.855-1.126l0.087-0.22l0.29,0.115
		c0.349,0.136,0.635,0.13,0.864-0.021c0.139-0.094,0.299-0.367,0.478-0.822l2.699-6.845l0.216,0.085l2.766,8.649l1.972-5.002
		c0.197-0.5,0.265-0.834,0.206-1.001c-0.088-0.229-0.291-0.405-0.611-0.532l-0.29-0.114l0.086-0.221l2.854,1.126l-0.086,0.22
		l-0.286-0.111c-0.352-0.14-0.639-0.132-0.868,0.018c-0.139,0.094-0.299,0.369-0.478,0.824l-2.227,5.646
		c0.126,0.368,0.234,0.62,0.32,0.757c0.088,0.136,0.233,0.286,0.437,0.458c0.103,0.079,0.271,0.168,0.506,0.261L121.265,144.907z
		 M102.797,136.446l1.503-2.614l0.205,0.118c-0.222,0.541-0.332,1.009-0.329,1.406c0.002,0.396,0.114,0.773,0.334,1.134
		c0.219,0.359,0.5,0.637,0.843,0.833c0.388,0.224,0.775,0.289,1.164,0.2c0.389-0.091,0.672-0.288,0.844-0.588
		c0.132-0.231,0.174-0.488,0.124-0.771c-0.073-0.411-0.406-1.099-1.007-2.062c-0.489-0.787-0.805-1.357-0.947-1.706
		c-0.142-0.354-0.205-0.705-0.185-1.062c0.019-0.354,0.114-0.683,0.288-0.984c0.329-0.573,0.835-0.938,1.517-1.099
		c0.684-0.157,1.376-0.035,2.074,0.364c0.221,0.127,0.416,0.263,0.59,0.409c0.106,0.085,0.304,0.291,0.6,0.618
		c0.293,0.326,0.49,0.517,0.586,0.573c0.093,0.054,0.184,0.066,0.269,0.043c0.086-0.026,0.193-0.12,0.321-0.281l0.206,0.118
		l-1.49,2.591l-0.206-0.119c0.215-0.597,0.32-1.079,0.31-1.441c-0.008-0.363-0.13-0.732-0.365-1.103
		c-0.234-0.373-0.551-0.675-0.952-0.906c-0.465-0.266-0.905-0.354-1.314-0.263c-0.413,0.091-0.715,0.304-0.908,0.639
		c-0.107,0.188-0.164,0.405-0.173,0.653c-0.006,0.25,0.05,0.517,0.17,0.806c0.08,0.196,0.342,0.66,0.783,1.396
		c0.442,0.731,0.738,1.287,0.888,1.659s0.221,0.732,0.214,1.071c-0.007,0.343-0.102,0.671-0.282,0.984
		c-0.311,0.542-0.79,0.889-1.432,1.042c-0.642,0.152-1.287,0.042-1.93-0.328c-0.403-0.233-0.773-0.577-1.111-1.032
		c-0.155-0.213-0.276-0.343-0.361-0.392c-0.097-0.057-0.193-0.074-0.287-0.051c-0.095,0.022-0.21,0.108-0.349,0.263L102.797,136.446
		z M98.76,127.357l1.67-1.929c0.359-0.415,0.538-0.711,0.532-0.89c0.001-0.25-0.123-0.48-0.372-0.696l-0.252-0.22l0.155-0.179
		l2.827,2.449l-0.155,0.178l-0.249-0.214c-0.279-0.243-0.559-0.325-0.835-0.247c-0.151,0.043-0.391,0.253-0.716,0.628l-3.697,4.271
		c-0.36,0.413-0.539,0.709-0.538,0.885c0.005,0.253,0.13,0.485,0.38,0.703l0.25,0.216l-0.156,0.179l-2.418-2.095
		c-0.591-0.511-1.002-0.976-1.238-1.393c-0.236-0.416-0.345-0.869-0.329-1.36s0.197-0.935,0.538-1.328
		c0.467-0.539,1.024-0.824,1.671-0.854c0.646-0.028,1.294,0.235,1.942,0.799c0.16,0.138,0.321,0.297,0.485,0.479
		C98.422,126.921,98.589,127.127,98.76,127.357 M98.518,127.636c-0.143-0.183-0.274-0.34-0.393-0.47
		c-0.117-0.13-0.224-0.236-0.317-0.316c-0.337-0.292-0.739-0.411-1.208-0.362c-0.469,0.049-0.884,0.28-1.241,0.693
		c-0.248,0.285-0.42,0.6-0.515,0.944c-0.095,0.346-0.087,0.67,0.02,0.977c0.109,0.305,0.298,0.577,0.569,0.811
		c0.166,0.145,0.404,0.295,0.716,0.458L98.518,127.636z M92.824,115.876l0.18-0.154l2.448,2.825l-0.179,0.155l-0.202-0.232
		c-0.237-0.275-0.488-0.402-0.753-0.392c-0.172,0.014-0.454,0.191-0.849,0.532l-4.27,3.699c-0.333,0.289-0.535,0.502-0.605,0.634
		c-0.053,0.104-0.065,0.231-0.035,0.382c0.046,0.21,0.137,0.394,0.271,0.549l0.203,0.234l-0.179,0.155l-2.448-2.826l0.179-0.156
		l0.205,0.238c0.233,0.268,0.482,0.395,0.746,0.382c0.175-0.01,0.458-0.186,0.853-0.528l4.269-3.697
		c0.334-0.289,0.536-0.501,0.606-0.636c0.054-0.101,0.065-0.229,0.032-0.385c-0.042-0.207-0.131-0.385-0.265-0.542L92.824,115.876z
		 M85.942,105.355l1.261,1.967l-1.836,4.7c0.122,0.174,0.22,0.316,0.292,0.43c0.03,0.046,0.06,0.098,0.091,0.151
		c0.032,0.054,0.065,0.108,0.098,0.169l2.14-1.372c0.461-0.296,0.715-0.53,0.761-0.703c0.072-0.238,0.02-0.494-0.156-0.767
		l-0.183-0.286l0.199-0.128l2.018,3.146l-0.199,0.128l-0.176-0.273c-0.2-0.312-0.443-0.468-0.73-0.473
		c-0.159-0.005-0.449,0.13-0.866,0.397L83.9,115.49c-0.462,0.296-0.717,0.531-0.762,0.703c-0.069,0.242-0.015,0.501,0.163,0.779
		l0.176,0.274l-0.199,0.128l-1.715-2.676c-0.501-0.781-0.812-1.392-0.936-1.834c-0.124-0.444-0.114-0.893,0.026-1.345
		c0.139-0.454,0.42-0.818,0.843-1.088c0.453-0.291,0.939-0.395,1.46-0.314c0.522,0.083,1.048,0.387,1.583,0.917l1.13-2.87
		c0.261-0.656,0.394-1.162,0.393-1.513c0.002-0.351-0.107-0.74-0.32-1.169L85.942,105.355z M85.504,112.991
		c-0.043-0.066-0.081-0.127-0.111-0.177c-0.03-0.052-0.055-0.094-0.075-0.125c-0.444-0.693-0.931-1.119-1.459-1.276
		c-0.531-0.157-1.03-0.085-1.498,0.216c-0.459,0.294-0.741,0.676-0.848,1.144c-0.104,0.467-0.006,0.937,0.293,1.405
		c0.133,0.207,0.346,0.466,0.639,0.775L85.504,112.991z M79.757,97.833l1.24,3.146l1.487,0.042c0.367,0.01,0.631-0.014,0.786-0.075
		c0.123-0.048,0.21-0.151,0.257-0.306c0.046-0.153,0.006-0.432-0.119-0.833l0.221-0.087l1.009,2.56l-0.22,0.087
		c-0.193-0.316-0.357-0.504-0.492-0.566c-0.272-0.128-0.751-0.199-1.435-0.215l-7.81-0.221l-0.079-0.202l5.642-5.487
		c0.454-0.441,0.724-0.785,0.814-1.036c0.088-0.249,0.076-0.542-0.035-0.883l0.221-0.086l1.262,3.201l-0.221,0.087
		c-0.143-0.316-0.282-0.514-0.42-0.592c-0.136-0.078-0.27-0.089-0.403-0.037c-0.176,0.07-0.422,0.259-0.739,0.568L79.757,97.833z
		 M79.388,98.191l-2.737,2.659l3.831,0.113L79.388,98.191z M70.938,85.678l2.004-0.451l0.043,0.239
		c-0.346,0.111-0.59,0.22-0.727,0.327c-0.22,0.175-0.371,0.38-0.447,0.619c-0.077,0.239-0.085,0.534-0.022,0.889l0.217,1.209
		l6.558-1.171c0.529-0.094,0.85-0.209,0.962-0.348c0.148-0.191,0.192-0.453,0.133-0.786l-0.053-0.296l0.234-0.042l0.652,3.656
		l-0.233,0.042l-0.055-0.309c-0.066-0.368-0.222-0.607-0.47-0.724c-0.153-0.068-0.471-0.06-0.952,0.026l-6.559,1.171l0.184,1.03
		c0.072,0.402,0.153,0.682,0.242,0.84c0.119,0.206,0.306,0.365,0.563,0.481c0.254,0.115,0.58,0.153,0.974,0.114l0.043,0.24
		l-2.036,0.269L70.938,85.678z M78.907,76.339l0.237-0.006l0.095,3.738l-0.237,0.005l-0.008-0.309
		c-0.009-0.362-0.121-0.62-0.334-0.779c-0.14-0.1-0.47-0.142-0.993-0.129l-5.647,0.143c-0.441,0.011-0.732,0.047-0.871,0.106
		c-0.106,0.046-0.196,0.136-0.269,0.272c-0.099,0.191-0.144,0.39-0.139,0.596l0.008,0.309l-0.237,0.007l-0.095-3.739l0.238-0.006
		l0.007,0.314c0.009,0.355,0.121,0.611,0.334,0.769c0.14,0.104,0.471,0.148,0.993,0.135l5.647-0.143
		c0.441-0.012,0.732-0.047,0.871-0.105c0.107-0.045,0.196-0.137,0.27-0.277c0.098-0.187,0.144-0.381,0.138-0.588L78.907,76.339z
		 M70.902,66.78c0.142-1.121,0.692-2.04,1.65-2.753c0.958-0.714,2.075-0.99,3.353-0.828c1.314,0.167,2.353,0.72,3.116,1.66
		c0.763,0.937,1.07,1.996,0.92,3.173c-0.151,1.189-0.703,2.135-1.653,2.837c-0.949,0.702-2.096,0.968-3.442,0.797
		c-1.373-0.175-2.435-0.785-3.185-1.829C71.011,68.929,70.758,67.91,70.902,66.78 M71.343,66.96
		c-0.098,0.771,0.111,1.427,0.626,1.966c0.643,0.673,1.653,1.098,3.033,1.273c1.413,0.18,2.539,0.017,3.378-0.489
		c0.638-0.39,1.005-0.963,1.102-1.723c0.103-0.812-0.13-1.52-0.696-2.129c-0.569-0.611-1.534-1.001-2.901-1.175
		c-1.483-0.188-2.626-0.037-3.427,0.452C71.82,65.527,71.448,66.135,71.343,66.96 M72.945,57.386l0.752-2.222l7.923-2.965
		l-4.775-1.616c-0.509-0.172-0.847-0.222-1.013-0.15c-0.221,0.094-0.388,0.306-0.499,0.635l-0.098,0.291l-0.225-0.076l0.983-2.906
		l0.225,0.076l-0.101,0.295c-0.12,0.355-0.098,0.641,0.063,0.862c0.101,0.134,0.383,0.28,0.847,0.437l6.967,2.358l-0.074,0.22
		l-8.502,3.189l5.093,1.723c0.509,0.172,0.846,0.223,1.01,0.156c0.223-0.098,0.39-0.311,0.501-0.637l0.1-0.295l0.224,0.076
		l-0.983,2.906l-0.225-0.076l0.099-0.291c0.121-0.357,0.1-0.644-0.061-0.866c-0.101-0.134-0.383-0.28-0.847-0.437l-5.75-1.945
		c-0.361,0.144-0.608,0.264-0.739,0.357c-0.131,0.094-0.275,0.247-0.435,0.459c-0.076,0.106-0.155,0.279-0.236,0.518L72.945,57.386z
		 M197.402,48.688l-0.211,0.108l-1.705-3.328l0.211-0.108l0.142,0.275c0.165,0.322,0.378,0.507,0.638,0.558
		c0.171,0.029,0.486-0.076,0.951-0.314l5.028-2.575c0.393-0.201,0.639-0.36,0.739-0.472c0.075-0.089,0.117-0.209,0.125-0.363
		c0.006-0.215-0.04-0.414-0.134-0.597l-0.141-0.276l0.211-0.108l1.704,3.329l-0.211,0.107l-0.143-0.279
		c-0.162-0.316-0.374-0.499-0.634-0.548c-0.172-0.032-0.489,0.071-0.954,0.308l-5.028,2.576c-0.392,0.201-0.639,0.359-0.738,0.472
		c-0.077,0.086-0.118,0.208-0.123,0.366c-0.008,0.211,0.035,0.406,0.129,0.59L197.402,48.688z M207.102,49.076l0.752,2.222
		l-4.495,7.167l4.774-1.615c0.51-0.172,0.808-0.338,0.896-0.495c0.118-0.21,0.122-0.48,0.011-0.808l-0.099-0.291l0.226-0.076
		l0.982,2.906l-0.225,0.076l-0.101-0.296c-0.119-0.355-0.31-0.569-0.572-0.646c-0.161-0.046-0.474,0.009-0.938,0.166l-6.968,2.358
		l-0.074-0.22l4.818-7.696l-5.093,1.723c-0.51,0.173-0.809,0.336-0.897,0.489c-0.118,0.214-0.122,0.484-0.012,0.81l0.1,0.296
		l-0.224,0.076l-0.983-2.906l0.225-0.077l0.099,0.291c0.121,0.358,0.311,0.574,0.574,0.652c0.161,0.045,0.475-0.01,0.938-0.167
		l5.75-1.946c0.199-0.334,0.322-0.579,0.37-0.732c0.048-0.155,0.069-0.364,0.067-0.63c-0.005-0.13-0.046-0.315-0.127-0.555
		L207.102,49.076z M212.266,70.786l-2.024,0.35l-0.03-0.242c0.352-0.093,0.6-0.189,0.742-0.288c0.229-0.164,0.39-0.362,0.478-0.597
		c0.09-0.234,0.111-0.529,0.066-0.886l-0.155-1.219l-6.609,0.84c-0.534,0.067-0.859,0.166-0.978,0.299
		c-0.157,0.183-0.215,0.443-0.173,0.778l0.038,0.298l-0.235,0.031l-0.468-3.684l0.235-0.03l0.039,0.311
		c0.047,0.37,0.191,0.617,0.434,0.746c0.148,0.076,0.466,0.084,0.952,0.023l6.608-0.84l-0.132-1.039
		c-0.051-0.404-0.118-0.688-0.198-0.85c-0.108-0.212-0.287-0.38-0.538-0.509c-0.249-0.128-0.572-0.182-0.968-0.163l-0.03-0.241
		l2.046-0.167L212.266,70.786z M211.914,78.598l-3.448-0.087l-0.049,1.922c-0.013,0.498,0.054,0.831,0.197,1.001
		c0.193,0.229,0.536,0.361,1.031,0.4l-0.006,0.237l-3.04-0.077l0.006-0.237c0.426-0.048,0.703-0.103,0.825-0.159
		c0.15-0.073,0.272-0.197,0.362-0.371c0.091-0.173,0.141-0.442,0.15-0.806l0.047-1.922l-2.877-0.073
		c-0.386-0.009-0.622,0.002-0.706,0.033c-0.084,0.033-0.153,0.09-0.203,0.175c-0.053,0.084-0.081,0.248-0.088,0.487l-0.037,1.477
		c-0.012,0.491,0.014,0.849,0.076,1.075c0.062,0.223,0.193,0.442,0.39,0.651c0.259,0.272,0.652,0.554,1.182,0.846l-0.007,0.264
		l-2.166-0.808l0.17-6.724l0.237,0.006l-0.008,0.309c-0.006,0.206,0.04,0.403,0.135,0.589c0.064,0.14,0.165,0.238,0.302,0.289
		c0.137,0.054,0.417,0.085,0.843,0.096l5.673,0.144c0.553,0.014,0.895-0.033,1.024-0.141c0.175-0.152,0.268-0.406,0.276-0.768
		l0.008-0.31l0.237,0.006l-0.171,6.727l-1.924,0.043l0.007-0.25c0.465-0.078,0.785-0.169,0.961-0.274
		c0.177-0.105,0.312-0.264,0.41-0.475c0.067-0.17,0.108-0.471,0.119-0.904L211.914,78.598z M209.811,96.854l-2.731-0.401
		l0.054-0.231c0.716-0.067,1.282-0.238,1.7-0.508c0.602-0.393,0.995-0.985,1.178-1.776c0.249-1.078,0.011-1.997-0.717-2.758
		c-0.612-0.636-1.42-1.07-2.418-1.301c-0.811-0.187-1.584-0.201-2.326-0.041c-0.739,0.158-1.324,0.456-1.753,0.89
		c-0.427,0.435-0.703,0.921-0.827,1.456c-0.072,0.312-0.102,0.625-0.09,0.936c0.012,0.309,0.064,0.618,0.158,0.926l2.466,0.569
		c0.427,0.099,0.715,0.131,0.859,0.098c0.148-0.036,0.272-0.113,0.372-0.232c0.102-0.121,0.191-0.352,0.271-0.695l0.23,0.053
		l-0.758,3.285l-0.23-0.054l0.034-0.155c0.076-0.326,0.019-0.573-0.172-0.745c-0.134-0.119-0.431-0.23-0.889-0.336l-2.607-0.601
		c-0.149-0.54-0.229-1.059-0.244-1.553c-0.014-0.496,0.046-1.029,0.178-1.6c0.379-1.64,1.191-2.763,2.441-3.371
		c0.938-0.458,1.924-0.565,2.955-0.328c0.748,0.173,1.426,0.519,2.026,1.036c0.717,0.613,1.211,1.342,1.477,2.185
		c0.222,0.706,0.233,1.482,0.038,2.331c-0.071,0.308-0.163,0.582-0.27,0.823c-0.109,0.24-0.301,0.572-0.579,0.997
		c-0.141,0.212-0.223,0.36-0.241,0.44c-0.018,0.079,0.003,0.153,0.062,0.228c0.061,0.072,0.195,0.14,0.405,0.202L209.811,96.854z
		 M195.795,107.449l0.963-2.129l4.939-1.02c0.081-0.198,0.148-0.357,0.203-0.48c0.023-0.049,0.049-0.103,0.077-0.158
		c0.028-0.057,0.055-0.114,0.088-0.174l-2.315-1.047c-0.5-0.226-0.834-0.312-1.004-0.256c-0.239,0.07-0.426,0.253-0.559,0.549
		l-0.141,0.31l-0.216-0.098l1.54-3.407l0.217,0.097l-0.136,0.298c-0.151,0.336-0.15,0.626,0.003,0.869
		c0.083,0.136,0.353,0.306,0.805,0.51l5.146,2.327c0.5,0.226,0.834,0.312,1.005,0.257c0.24-0.075,0.429-0.262,0.564-0.561
		l0.135-0.299l0.216,0.098l-1.31,2.895c-0.382,0.846-0.726,1.44-1.028,1.785c-0.306,0.346-0.688,0.583-1.143,0.712
		c-0.457,0.13-0.914,0.092-1.372-0.115c-0.489-0.221-0.841-0.573-1.058-1.053c-0.215-0.483-0.246-1.089-0.094-1.828l-3.021,0.617
		c-0.694,0.138-1.189,0.302-1.483,0.495c-0.295,0.188-0.562,0.492-0.807,0.903L195.795,107.449z M202.438,103.656
		c-0.033,0.074-0.062,0.138-0.089,0.191c-0.026,0.054-0.048,0.096-0.063,0.131c-0.339,0.749-0.431,1.389-0.274,1.918
		c0.157,0.531,0.488,0.91,0.997,1.139c0.496,0.225,0.969,0.253,1.42,0.088c0.448-0.168,0.789-0.506,1.018-1.011
		c0.102-0.224,0.203-0.544,0.304-0.959L202.438,103.656z M192.828,116.715l1.96-2.757l-0.776-1.268
		c-0.191-0.314-0.356-0.523-0.491-0.62c-0.107-0.076-0.24-0.092-0.396-0.047c-0.153,0.044-0.366,0.229-0.635,0.553l-0.192-0.136
		l1.595-2.244l0.193,0.138c-0.159,0.334-0.228,0.573-0.206,0.722c0.041,0.299,0.243,0.737,0.603,1.318l4.076,6.666l-0.126,0.178
		l-7.677-1.734c-0.617-0.141-1.053-0.178-1.312-0.118c-0.257,0.063-0.496,0.232-0.722,0.511l-0.192-0.138l1.993-2.804l0.193,0.137
		c-0.187,0.293-0.276,0.519-0.268,0.675c0.01,0.157,0.074,0.276,0.19,0.359c0.153,0.109,0.446,0.212,0.879,0.309L192.828,116.715z
		 M193.329,116.828l3.723,0.843l-1.996-3.271L193.329,116.828z M187.499,130.692l-1.482-1.421l0.177-0.168
		c0.282,0.226,0.508,0.37,0.671,0.425c0.27,0.087,0.523,0.099,0.765,0.031c0.242-0.068,0.492-0.225,0.753-0.474l0.89-0.848
		l-4.598-4.822c-0.371-0.389-0.644-0.593-0.82-0.608c-0.242-0.019-0.485,0.09-0.729,0.321l-0.219,0.208l-0.162-0.172l2.687-2.562
		l0.164,0.172l-0.229,0.216c-0.269,0.258-0.382,0.521-0.342,0.791c0.027,0.165,0.209,0.426,0.546,0.781l4.598,4.821l0.758-0.723
		c0.295-0.282,0.482-0.504,0.565-0.665c0.107-0.213,0.137-0.456,0.092-0.734c-0.045-0.276-0.193-0.568-0.443-0.875l0.177-0.168
		l1.349,1.549L187.499,130.692z M175.274,129.157l-0.137-0.193l3.047-2.167l0.138,0.193l-0.252,0.179
		c-0.296,0.21-0.447,0.447-0.461,0.714c-0.003,0.173,0.146,0.47,0.448,0.895l3.274,4.604c0.255,0.359,0.447,0.58,0.573,0.663
		c0.099,0.063,0.224,0.087,0.376,0.071c0.215-0.023,0.405-0.098,0.573-0.217l0.252-0.18l0.138,0.192l-3.048,2.167l-0.138-0.192
		l0.256-0.183c0.29-0.206,0.439-0.44,0.451-0.706c0.008-0.175-0.14-0.473-0.443-0.898l-3.272-4.604
		c-0.256-0.358-0.448-0.58-0.574-0.663c-0.097-0.062-0.224-0.086-0.381-0.067c-0.21,0.021-0.397,0.093-0.564,0.213L175.274,129.157z
		 M171.384,141.128c-1.029,0.467-2.102,0.479-3.209,0.035c-1.11-0.441-1.93-1.249-2.461-2.423c-0.546-1.208-0.618-2.381-0.218-3.522
		c0.399-1.143,1.142-1.957,2.224-2.445c1.091-0.495,2.186-0.521,3.281-0.078s1.922,1.28,2.48,2.515
		c0.57,1.263,0.606,2.486,0.109,3.673C173.156,139.911,172.422,140.66,171.384,141.128 M171.306,140.658
		c0.709-0.319,1.159-0.841,1.349-1.562c0.236-0.9,0.069-1.983-0.504-3.25c-0.587-1.299-1.314-2.174-2.185-2.622
		c-0.667-0.34-1.347-0.354-2.045-0.037c-0.746,0.338-1.228,0.907-1.45,1.709c-0.222,0.802-0.049,1.83,0.519,3.086
		c0.615,1.361,1.343,2.256,2.179,2.682C169.837,141.002,170.549,141,171.306,140.658 M162.415,144.557l-2.285,0.526l-6.686-5.184
		l1.134,4.912c0.12,0.522,0.256,0.837,0.403,0.939c0.197,0.14,0.465,0.169,0.802,0.093l0.301-0.069l0.053,0.229l-2.988,0.69
		l-0.054-0.231l0.304-0.068c0.365-0.085,0.597-0.253,0.7-0.507c0.062-0.156,0.037-0.474-0.072-0.949l-1.654-7.168l0.227-0.052
		l7.179,5.558l-1.209-5.238c-0.121-0.523-0.254-0.838-0.397-0.941c-0.2-0.139-0.469-0.169-0.806-0.092l-0.303,0.07l-0.053-0.23
		l2.989-0.69l0.053,0.231l-0.299,0.068c-0.368,0.085-0.602,0.253-0.705,0.507c-0.061,0.156-0.037,0.474,0.073,0.949l1.364,5.915
		c0.312,0.232,0.545,0.379,0.692,0.442c0.149,0.062,0.354,0.104,0.62,0.13c0.13,0.007,0.317-0.016,0.563-0.073L162.415,144.557z
		 M186.552,21.464l1.697,1.619l-0.652,8.435l3.478-3.649c0.372-0.389,0.56-0.674,0.564-0.854c0.008-0.241-0.114-0.482-0.365-0.721
		l-0.222-0.212l0.163-0.172l2.221,2.117l-0.164,0.172l-0.226-0.215c-0.271-0.259-0.539-0.36-0.809-0.307
		c-0.164,0.035-0.415,0.229-0.752,0.583l-5.077,5.324l-0.168-0.161l0.694-9.053l-3.71,3.892c-0.371,0.389-0.56,0.673-0.569,0.85
		c-0.004,0.244,0.118,0.484,0.367,0.722l0.226,0.215l-0.163,0.172l-2.221-2.117l0.164-0.172l0.222,0.212
		c0.273,0.26,0.543,0.363,0.812,0.31c0.164-0.035,0.415-0.229,0.753-0.583l4.188-4.393c0.021-0.389,0.017-0.663-0.013-0.821
		c-0.029-0.159-0.106-0.355-0.231-0.589c-0.065-0.113-0.188-0.258-0.371-0.432L186.552,21.464z"/>
	<path fill="#FFFFFF" stroke="#FFFFFF" stroke-miterlimit="10" d="M193.633,24.205c-13.358-13.359-31.813-21.622-52.199-21.622
		c-20.385,0-38.839,8.263-52.199,21.622C75.876,37.563,67.614,56.019,67.614,76.403c0,20.385,8.262,38.841,21.621,52.199
		c13.359,13.359,31.814,21.621,52.199,21.621c20.386,0,38.841-8.262,52.199-21.621c13.359-13.357,21.622-31.813,21.622-52.199
		C215.255,56.019,206.992,37.563,193.633,24.205 M141.434,0c21.099,0,40.2,8.552,54.026,22.378
		c13.826,13.827,22.378,32.928,22.378,54.026c0,21.098-8.552,40.201-22.378,54.026c-13.826,13.826-32.928,22.378-54.026,22.378
		c-21.098,0-40.199-8.552-54.024-22.378C73.582,116.602,65.03,97.501,65.03,76.403c0-21.098,8.552-40.199,22.379-54.026
		C101.235,8.552,120.336,0,141.434,0"/>
</g>
</svg>
